{"title":"Max Hardcore Vs Amy Lee (very pretty slut abused hard)","uid":10796540,"size":107744757,"categoryP":"porn","categoryS":"movie_clips","magnet":"?xt=urn:btih:492794a324d3465a870cfe9035668d240f291cb8&amp;dn=Max+Hardcore+Vs+Amy+Lee+%28very+pretty+slut+abused+hard%29&amp;tr=udp%3A%2F%2Ftracker.openbittorrent.com%3A80&amp;tr=udp%3A%2F%2Fopen.demonii.com%3A1337&amp;tr=udp%3A%2F%2Ftracker.coppersurfer.tk%3A6969&amp;tr=udp%3A%2F%2Fexodus.desync.com%3A6969","seeders":28,"leechers":3,"uploader":"ThousandPeers","files":-1,"time":1408298887,"description":"Video\n\nID                                       : 2\nFormat                                   : MPEG-4 Visual\nCodec ID                                 : MP4S\nCodec ID/Info                            : Microsoft MPEG-4 (Windows Media 7.0)\nCodec ID/Hint                            : MS MPEG-4 v3\nDescription of the codec                 : ISO MPEG-4 Video V1\nDuration                                 : 14mn 5s\nBit rate mode                            : Constant\nBit rate                                 : 655 Kbps\nWidth                                    : 320 pixels\nHeight                                   : 240 pixels\nDisplay aspect ratio                     : 4:3\nFrame rate                               : 29.970 fps\nColor space                              : YUV\nChroma subsampling                       : 4:2:0\nBit depth                                : 8 bits\nCompression mode                         : Lossy\nBits/(Pixel*Frame)                       : 0.285\nStream size                              : 66.1 MiB (93%)\nLanguage                                 : English (GB)\n\n\nAudio\n\nID                                       : 1\nFormat                                   : WMA\nFormat version                           : Version 2\nCodec ID                                 : 161\nCodec ID/Info                            : Windows Media Audio\nDescription of the codec                 : Windows Media Audio V8 -  32 kbps, 32 kHz, stereo\nDuration                                 : 14mn 5s\nBit rate mode                            : Constant\nBit rate                                 : 32.0 Kbps\nChannel(s)                               : 2 channels\nSampling rate                            : 32.0 KHz\nBit depth                                : 16 bits\nStream size                              : 3.23 MiB (5%)\nLanguage                                 : English (GB)\n","torrent":{"xt":"urn:btih:492794a324d3465a870cfe9035668d240f291cb8","amp;dn":"Max+Hardcore+Vs+Amy+Lee+%28very+pretty+slut+abused+hard%29","amp;tr":["udp%3A%2F%2Ftracker.openbittorrent.com%3A80","udp%3A%2F%2Fopen.demonii.com%3A1337","udp%3A%2F%2Ftracker.coppersurfer.tk%3A6969","udp%3A%2F%2Fexodus.desync.com%3A6969"],"infoHash":"492794a324d3465a870cfe9035668d240f291cb8","infoHashBuffer":{"type":"Buffer","data":[73,39,148,163,36,211,70,90,135,12,254,144,53,102,141,36,15,41,28,184]},"announce":[],"urlList":[]}}